# xmcd
# 
# Track frame offsets:
#     150
#     11733
#     23984
#     38768
#     53764
#     67479
#     81654
#     102725
#     115840
#     129596
#     142748
#     152966
# 
# Disc length: 2232
# 
# Revision: 0
# Processed by: cddbd v1.5.2PL0 Copyright (c) Steve Scherf et al.
# Submitted via: fre:ac v1.0.17
# 
DISCID=ad08b60c
DTITLE=John Fogerty - Blue Ridge Rangers
DYEAR=1973
DGENRE=Country
TTITLE0=Blue Ridge Mountain Blues
TTITLE1=Somewhere Listening (For My Name)
TTITLE2=You're The Reason
TTITLE3=Jambalaya (On The Bayou)
TTITLE4=She Thinks I Still Care
TTITLE5=California Blues (Blue Yodel #4)
TTITLE6=Workin' On A Building
TTITLE7=Please Help Me, I'm Falling
TTITLE8=Have Thine Own Way, Lord
TTITLE9=I Ain't Never
TTITLE10=Hearts Of Stone
TTITLE11=Today I Started Loving You Again
EXTD=The album is made up entirely of traditional and country covers, and features Fogerty playing all the instruments.
EXTT0=
EXTT1=
EXTT2=
EXTT3=
EXTT4=
EXTT5=
EXTT6=
EXTT7=
EXTT8=
EXTT9=
EXTT10=
EXTT11=
PLAYORDER=
